<svg xmlns="http://www.w3.org/2000/svg" viewBox="0 0 420 300" role="img" aria-labelledby="title desc">
  <title id="title">Statement import</title>
  <desc id="desc">Bank statement rows flowing into categorized envelopes.</desc>
  <rect width="420" height="300" rx="28" fill="#f4f6f2" />
  <rect x="54" y="38" width="180" height="224" rx="18" fill="#ffffff" stroke="#cbd8d8" stroke-width="3" />
  <rect x="82" y="70" width="92" height="14" rx="7" fill="#20505c" />
  <rect x="82" y="111" width="120" height="12" rx="6" fill="#d7e3df" />
  <rect x="82" y="145" width="98" height="12" rx="6" fill="#d7e3df" />
  <rect x="82" y="179" width="132" height="12" rx="6" fill="#d7e3df" />
  <rect x="82" y="213" width="74" height="12" rx="6" fill="#d7e3df" />
  <path d="M238 150h68" stroke="#c08b45" stroke-width="8" stroke-linecap="round" />
  <path d="M290 128l28 22-28 22" fill="none" stroke="#c08b45" stroke-width="8" stroke-linecap="round" stroke-linejoin="round" />
  <rect x="304" y="85" width="72" height="54" rx="12" fill="#20505c" />
  <path d="M304 99l36 24 36-24" fill="none" stroke="#f7fbfb" stroke-width="5" stroke-linecap="round" stroke-linejoin="round" />
  <rect x="304" y="162" width="72" height="54" rx="12" fill="#6fa38b" />
  <path d="M304 176l36 24 36-24" fill="none" stroke="#f7fbfb" stroke-width="5" stroke-linecap="round" stroke-linejoin="round" />
</svg>